<svg xmlns="http://www.w3.org/2000/svg" xmlns:xlink="http://www.w3.org/1999/xlink" width="500" zoomAndPan="magnify" viewBox="0 0 375 374.999991" height="500" preserveAspectRatio="xMidYMid meet" version="1.0"><defs><clipPath id="a4419cc7f2"><path d="M 94 122 L 228 122 L 228 265 L 94 265 Z M 94 122 " clip-rule="nonzero"/></clipPath><clipPath id="32b3413ff9"><path d="M 203.121094 122.554688 L 227.3125 144.367188 L 118.824219 264.683594 L 94.632812 242.871094 Z M 203.121094 122.554688 " clip-rule="nonzero"/></clipPath><clipPath id="d14f7de086"><path d="M 148 109 L 281 109 L 281 251 L 148 251 Z M 148 109 " clip-rule="nonzero"/></clipPath><clipPath id="772ad99e96"><path d="M 256.867188 109.550781 L 280.542969 130.902344 L 172.269531 250.976562 L 148.589844 229.625 Z M 256.867188 109.550781 " clip-rule="nonzero"/></clipPath></defs><g clip-path="url(#a4419cc7f2)"><g clip-path="url(#32b3413ff9)"><path fill="#2c4f40" d="M 203.121094 122.554688 L 227.3125 144.367188 L 118.839844 264.667969 L 94.648438 242.851562 Z M 203.121094 122.554688 " fill-opacity="1" fill-rule="nonzero"/></g></g><g clip-path="url(#d14f7de086)"><g clip-path="url(#772ad99e96)"><path fill="#94ad65" d="M 256.867188 109.550781 L 280.542969 130.902344 L 172.285156 250.960938 L 148.605469 229.609375 Z M 256.867188 109.550781 " fill-opacity="1" fill-rule="nonzero"/></g></g></svg>