<svg xmlns="http://www.w3.org/2000/svg" xmlns:xlink="http://www.w3.org/1999/xlink" width="500" zoomAndPan="magnify" viewBox="0 0 375 374.999991" height="500" preserveAspectRatio="xMidYMid meet" version="1.0"><defs><clipPath id="8c7ddd873b"><path d="M 56.507812 50.15625 L 318.257812 50.15625 L 318.257812 324.65625 L 56.507812 324.65625 Z M 56.507812 50.15625 " clip-rule="nonzero"/></clipPath><clipPath id="ceedcffb14"><path d="M 204.695312 225.820312 L 212.390625 225.820312 L 212.390625 233.515625 L 204.695312 233.515625 Z M 204.695312 225.820312 " clip-rule="nonzero"/></clipPath><clipPath id="4763eb77fc"><path d="M 208.542969 225.820312 C 206.417969 225.820312 204.695312 227.542969 204.695312 229.667969 C 204.695312 231.792969 206.417969 233.515625 208.542969 233.515625 C 210.667969 233.515625 212.390625 231.792969 212.390625 229.667969 C 212.390625 227.542969 210.667969 225.820312 208.542969 225.820312 Z M 208.542969 225.820312 " clip-rule="nonzero"/></clipPath></defs><g clip-path="url(#8c7ddd873b)"><path fill="#800080" d="M 85.746094 225.621094 C 85.746094 223.175781 87.726562 221.191406 90.171875 221.191406 L 186.230469 221.191406 C 188.675781 221.191406 190.65625 223.175781 190.65625 225.621094 C 190.65625 228.066406 188.675781 230.046875 186.230469 230.046875 L 90.171875 230.046875 C 87.726562 230.046875 85.746094 228.066406 85.746094 225.621094 Z M 90.171875 187.714844 L 186.230469 187.714844 C 188.675781 187.714844 190.65625 185.730469 190.65625 183.289062 C 190.65625 180.84375 188.675781 178.859375 186.230469 178.859375 L 90.171875 178.859375 C 87.726562 178.859375 85.746094 180.84375 85.746094 183.289062 C 85.746094 185.730469 87.726562 187.714844 90.171875 187.714844 Z M 90.171875 166.546875 L 186.230469 166.546875 C 188.675781 166.546875 190.65625 164.566406 190.65625 162.121094 C 190.65625 159.675781 188.675781 157.695312 186.230469 157.695312 L 90.171875 157.695312 C 87.726562 157.695312 85.746094 159.675781 85.746094 162.121094 C 85.746094 164.566406 87.726562 166.546875 90.171875 166.546875 Z M 90.171875 208.878906 L 186.230469 208.878906 C 188.675781 208.878906 190.65625 206.898438 190.65625 204.453125 C 190.65625 202.007812 188.675781 200.027344 186.230469 200.027344 L 90.171875 200.027344 C 87.726562 200.027344 85.746094 202.007812 85.746094 204.453125 C 85.746094 206.898438 87.726562 208.878906 90.171875 208.878906 Z M 318.480469 136.367188 L 318.480469 170.121094 C 318.480469 171.800781 317.53125 173.332031 316.027344 174.082031 C 314.527344 174.832031 312.730469 174.667969 311.390625 173.660156 L 302.984375 167.339844 L 294.582031 173.660156 C 293.796875 174.246094 292.863281 174.546875 291.917969 174.546875 C 291.246094 174.546875 290.566406 174.394531 289.941406 174.082031 C 288.441406 173.332031 287.492188 171.796875 287.492188 170.121094 L 287.492188 136.367188 C 287.492188 134.785156 288.335938 133.324219 289.707031 132.535156 L 298.558594 127.421875 L 298.558594 87.585938 L 282.796875 91.773438 L 282.796875 140.957031 C 282.796875 143.09375 281.265625 144.925781 279.164062 145.3125 C 267.957031 147.359375 258.714844 149.144531 251.289062 150.582031 C 249.527344 150.921875 247.84375 151.25 246.230469 151.558594 L 246.230469 185.683594 L 256.742188 175.171875 C 259.355469 172.558594 262.835938 171.117188 266.542969 171.117188 C 270.25 171.117188 273.730469 172.558594 276.34375 175.171875 L 279.011719 177.839844 C 281.625 180.453125 283.0625 183.933594 283.0625 187.640625 C 283.0625 191.347656 281.625 194.828125 279.011719 197.441406 L 246.230469 230.226562 L 246.230469 316.308594 C 246.230469 320.976562 242.433594 324.773438 237.765625 324.773438 L 91.332031 324.773438 C 86.667969 324.773438 82.871094 320.976562 82.871094 316.308594 L 82.871094 298.425781 L 64.984375 298.425781 C 60.320312 298.425781 56.523438 294.628906 56.523438 289.960938 L 56.523438 120.449219 C 56.523438 119.261719 56.753906 118.136719 57.203125 117.101562 C 57.265625 116.945312 57.335938 116.796875 57.417969 116.648438 C 57.816406 115.859375 58.339844 115.125 59 114.464844 L 81.667969 91.796875 C 82.328125 91.136719 83.0625 90.613281 83.855469 90.210938 C 84 90.132812 84.152344 90.0625 84.304688 89.996094 C 85.34375 89.550781 86.46875 89.316406 87.652344 89.316406 L 133.042969 89.316406 L 115.136719 84.558594 C 113.195312 84.042969 111.84375 82.289062 111.84375 80.28125 C 111.84375 78.273438 113.195312 76.515625 115.136719 76.003906 L 211.402344 50.429688 C 212.148438 50.230469 212.933594 50.230469 213.675781 50.429688 L 309.945312 76 C 311.886719 76.515625 313.234375 78.273438 313.234375 80.28125 C 313.234375 82.289062 311.886719 84.042969 309.945312 84.558594 L 307.414062 85.230469 L 307.414062 127.421875 L 316.265625 132.535156 C 317.636719 133.324219 318.480469 134.789062 318.480469 136.367188 Z M 71.636719 114.347656 L 81.554688 114.347656 L 81.554688 104.433594 Z M 65.375 289.570312 L 211.027344 289.570312 L 211.027344 265.402344 C 210.515625 265.855469 209.910156 266.191406 209.246094 266.367188 L 187.375 272.230469 C 186.996094 272.332031 186.613281 272.378906 186.230469 272.378906 C 186.046875 272.378906 90.171875 272.378906 90.171875 272.378906 C 87.726562 272.378906 85.746094 270.398438 85.746094 267.953125 C 85.746094 265.507812 87.726562 263.523438 90.171875 263.523438 L 182.832031 263.523438 L 186.132812 251.214844 L 90.171875 251.214844 C 87.726562 251.214844 85.746094 249.230469 85.746094 246.785156 C 85.746094 244.339844 87.726562 242.359375 90.171875 242.359375 L 186.230469 242.359375 C 187.175781 242.359375 188.050781 242.660156 188.773438 243.164062 C 188.835938 243.09375 188.894531 243.019531 188.960938 242.949219 L 211.027344 220.882812 L 211.027344 156.128906 C 201.726562 155.949219 191.992188 154.101562 173.789062 150.582031 C 166.453125 149.164062 157.335938 147.402344 146.308594 145.382812 L 90.171875 145.382812 C 87.726562 145.382812 85.746094 143.398438 85.746094 140.953125 C 85.746094 138.507812 87.726562 136.527344 90.171875 136.527344 L 142.285156 136.527344 L 142.285156 124.214844 L 118.398438 124.214844 C 115.953125 124.214844 113.96875 122.234375 113.96875 119.789062 C 113.96875 117.34375 115.953125 115.359375 118.398438 115.359375 L 142.285156 115.359375 L 142.285156 98.171875 L 90.410156 98.171875 L 90.410156 116.757812 C 90.410156 120.3125 87.515625 123.203125 83.960938 123.203125 L 65.375 123.203125 Z M 192.492188 261.691406 L 199.546875 259.800781 L 194.382812 254.632812 Z M 261.832031 202.101562 L 252.082031 192.351562 L 198.351562 246.082031 L 208.101562 255.832031 Z M 237.375 239.078125 L 219.882812 256.574219 L 219.882812 289.960938 C 219.882812 294.628906 216.085938 298.425781 211.417969 298.425781 L 91.722656 298.425781 L 91.722656 315.917969 L 237.375 315.917969 Z M 263 181.433594 L 258.34375 186.089844 L 268.09375 195.839844 L 272.75 191.179688 C 273.691406 190.242188 274.210938 188.984375 274.210938 187.640625 C 274.210938 186.296875 273.691406 185.039062 272.75 184.101562 L 270.082031 181.433594 C 269.140625 180.492188 267.882812 179.972656 266.542969 179.972656 C 265.199219 179.972656 263.941406 180.492188 263 181.433594 Z M 237.375 153.226562 C 230.324219 154.511719 224.835938 155.375 219.882812 155.8125 L 219.882812 212.03125 L 237.375 194.535156 Z M 273.941406 94.125 L 213.675781 110.132812 C 213.304688 110.230469 212.921875 110.28125 212.539062 110.28125 C 212.15625 110.28125 211.777344 110.230469 211.402344 110.132812 L 151.140625 94.125 L 151.140625 137.265625 C 160.769531 139.046875 168.84375 140.605469 175.472656 141.886719 C 212.539062 149.054688 212.539062 149.054688 249.609375 141.886719 C 256.238281 140.605469 264.308594 139.046875 273.941406 137.265625 Z M 291.5625 80.28125 L 212.539062 59.289062 L 133.515625 80.28125 L 212.539062 101.273438 Z M 309.625 138.925781 L 302.984375 135.09375 L 296.347656 138.925781 L 296.347656 161.253906 L 300.324219 158.261719 C 301.902344 157.074219 304.070312 157.074219 305.644531 158.261719 L 309.625 161.25 Z M 309.625 138.925781 " fill-opacity="1" fill-rule="nonzero"/></g><g clip-path="url(#ceedcffb14)"><g clip-path="url(#4763eb77fc)"><path fill="#800080" d="M 204.695312 225.820312 L 212.390625 225.820312 L 212.390625 233.515625 L 204.695312 233.515625 Z M 204.695312 225.820312 " fill-opacity="1" fill-rule="nonzero"/></g></g></svg>