<svg xmlns="http://www.w3.org/2000/svg" xmlns:xlink="http://www.w3.org/1999/xlink" width="500" zoomAndPan="magnify" viewBox="0 0 375 374.999991" height="500" preserveAspectRatio="xMidYMid meet" version="1.0"><defs><clipPath id="c7c7b7cf7a"><path d="M 13 52.363281 L 362 52.363281 L 362 322.363281 L 13 322.363281 Z M 13 52.363281 " clip-rule="nonzero"/></clipPath><clipPath id="13e2c22ee4"><path d="M 127.730469 267.085938 L 134.28125 267.085938 L 134.28125 273.636719 L 127.730469 273.636719 Z M 127.730469 267.085938 " clip-rule="nonzero"/></clipPath><clipPath id="8fa2435ac1"><path d="M 131.003906 267.085938 C 129.195312 267.085938 127.730469 268.550781 127.730469 270.359375 C 127.730469 272.167969 129.195312 273.636719 131.003906 273.636719 C 132.8125 273.636719 134.28125 272.167969 134.28125 270.359375 C 134.28125 268.550781 132.8125 267.085938 131.003906 267.085938 Z M 131.003906 267.085938 " clip-rule="nonzero"/></clipPath></defs><g clip-path="url(#c7c7b7cf7a)"><path fill="#800080" d="M 318.164062 52.324219 L 201.355469 52.324219 C 199.921875 52.324219 198.492188 52.390625 197.066406 52.53125 C 195.640625 52.671875 194.226562 52.878906 192.820312 53.15625 C 191.414062 53.433594 190.027344 53.78125 188.65625 54.195312 C 187.285156 54.609375 185.9375 55.089844 184.613281 55.636719 C 183.289062 56.1875 181.996094 56.796875 180.730469 57.46875 C 179.464844 58.144531 178.238281 58.878906 177.046875 59.675781 C 175.855469 60.46875 174.703125 61.320312 173.597656 62.226562 C 172.488281 63.136719 171.425781 64.09375 170.414062 65.109375 C 169.398438 66.121094 168.4375 67.179688 167.527344 68.285156 C 166.617188 69.390625 165.765625 70.539062 164.964844 71.730469 C 164.167969 72.921875 163.433594 74.148438 162.757812 75.410156 C 162.078125 76.675781 161.46875 77.96875 160.917969 79.289062 C 160.367188 80.613281 159.886719 81.960938 159.46875 83.332031 C 159.050781 84.699219 158.703125 86.089844 158.421875 87.492188 C 158.140625 88.898438 157.929688 90.3125 157.785156 91.738281 C 157.644531 93.164062 157.574219 94.59375 157.574219 96.027344 L 157.574219 120.195312 L 57.238281 120.195312 C 55.804688 120.195312 54.375 120.265625 52.949219 120.410156 C 51.523438 120.550781 50.109375 120.761719 48.703125 121.042969 C 47.296875 121.324219 45.910156 121.671875 44.539062 122.089844 C 43.167969 122.503906 41.820312 122.988281 40.496094 123.539062 C 39.171875 124.085938 37.878906 124.699219 36.613281 125.375 C 35.351562 126.054688 34.125 126.789062 32.933594 127.585938 C 31.742188 128.382812 30.59375 129.238281 29.484375 130.144531 C 28.378906 131.054688 27.316406 132.019531 26.304688 133.03125 C 25.292969 134.046875 24.332031 135.105469 23.421875 136.214844 C 22.515625 137.324219 21.660156 138.472656 20.867188 139.664062 C 20.070312 140.855469 19.335938 142.085938 18.660156 143.347656 C 17.984375 144.613281 17.371094 145.90625 16.824219 147.230469 C 16.277344 148.554688 15.792969 149.902344 15.378906 151.273438 C 14.964844 152.644531 14.617188 154.035156 14.335938 155.441406 C 14.058594 156.84375 13.847656 158.261719 13.707031 159.6875 C 13.566406 161.113281 13.496094 162.542969 13.496094 163.976562 L 13.496094 230.355469 C 13.496094 231.660156 13.558594 232.964844 13.675781 234.261719 C 13.792969 235.5625 13.96875 236.855469 14.203125 238.140625 C 14.4375 239.425781 14.726562 240.695312 15.074219 241.953125 C 15.421875 243.210938 15.828125 244.453125 16.285156 245.675781 C 16.742188 246.894531 17.253906 248.09375 17.820312 249.273438 C 18.386719 250.449219 19.003906 251.597656 19.671875 252.71875 C 20.339844 253.839844 21.058594 254.929688 21.824219 255.984375 C 22.589844 257.042969 23.402344 258.0625 24.257812 259.046875 C 25.117188 260.03125 26.015625 260.976562 26.957031 261.878906 C 27.898438 262.785156 28.878906 263.644531 29.898438 264.460938 C 30.914062 265.277344 31.96875 266.046875 33.054688 266.769531 C 34.144531 267.492188 35.261719 268.164062 36.40625 268.785156 C 37.554688 269.40625 38.726562 269.976562 39.925781 270.496094 C 41.125 271.011719 42.34375 271.472656 43.582031 271.882812 C 44.824219 272.292969 46.078125 272.644531 47.351562 272.9375 C 48.621094 273.234375 49.902344 273.472656 51.195312 273.65625 L 51.195312 316.269531 C 51.199219 316.808594 51.273438 317.335938 51.417969 317.855469 C 51.5625 318.375 51.773438 318.867188 52.050781 319.328125 C 52.324219 319.792969 52.65625 320.210938 53.046875 320.585938 C 53.433594 320.957031 53.863281 321.273438 54.335938 321.535156 C 54.808594 321.792969 55.304688 321.984375 55.832031 322.109375 C 56.355469 322.234375 56.886719 322.289062 57.421875 322.273438 C 57.960938 322.257812 58.488281 322.171875 59.003906 322.011719 C 59.519531 321.855469 60.003906 321.632812 60.460938 321.34375 L 135.339844 274.058594 L 174.328125 274.058594 C 175.753906 274.050781 177.179688 273.976562 178.597656 273.828125 C 180.019531 273.683594 181.425781 273.46875 182.824219 273.183594 C 184.222656 272.898438 185.605469 272.546875 186.96875 272.128906 C 188.332031 271.710938 189.675781 271.226562 190.992188 270.675781 C 192.308594 270.125 193.59375 269.507812 194.851562 268.832031 C 196.105469 268.15625 197.328125 267.417969 198.511719 266.625 C 199.695312 265.828125 200.839844 264.976562 201.9375 264.066406 C 203.039062 263.160156 204.09375 262.199219 205.101562 261.1875 C 206.105469 260.175781 207.0625 259.117188 207.964844 258.011719 C 208.867188 256.90625 209.714844 255.761719 210.507812 254.574219 C 211.296875 253.386719 212.027344 252.160156 212.699219 250.902344 C 213.371094 249.640625 213.976562 248.351562 214.523438 247.035156 C 215.066406 245.714844 215.546875 244.371094 215.957031 243.007812 C 216.371094 241.640625 216.71875 240.257812 216.996094 238.855469 C 217.273438 237.457031 217.480469 236.046875 217.621094 234.625 C 217.757812 233.207031 217.828125 231.78125 217.828125 230.355469 L 217.828125 206.1875 L 240.265625 206.1875 L 314.859375 253.394531 C 315.847656 254.003906 316.921875 254.3125 318.082031 254.320312 C 319.121094 254.320312 320.101562 254.078125 321.023438 253.597656 C 321.496094 253.332031 321.921875 253.007812 322.308594 252.628906 C 322.695312 252.25 323.023438 251.828125 323.296875 251.359375 C 323.570312 250.890625 323.773438 250.398438 323.914062 249.875 C 324.054688 249.351562 324.125 248.820312 324.125 248.28125 L 324.125 205.707031 C 325.417969 205.523438 326.699219 205.285156 327.96875 204.988281 C 329.242188 204.691406 330.496094 204.339844 331.738281 203.933594 C 332.976562 203.523438 334.195312 203.0625 335.394531 202.542969 C 336.59375 202.027344 337.765625 201.457031 338.914062 200.835938 C 340.0625 200.214844 341.179688 199.539062 342.265625 198.820312 C 343.351562 198.097656 344.40625 197.328125 345.425781 196.511719 C 346.441406 195.695312 347.421875 194.835938 348.363281 193.929688 C 349.304688 193.027344 350.207031 192.082031 351.0625 191.097656 C 351.917969 190.113281 352.730469 189.09375 353.496094 188.035156 C 354.261719 186.976562 354.980469 185.890625 355.648438 184.769531 C 356.316406 183.648438 356.933594 182.5 357.5 181.320312 C 358.066406 180.144531 358.578125 178.945312 359.035156 177.722656 C 359.496094 176.5 359.898438 175.261719 360.246094 174.003906 C 360.59375 172.746094 360.882812 171.472656 361.117188 170.191406 C 361.351562 168.90625 361.527344 167.613281 361.644531 166.3125 C 361.761719 165.015625 361.824219 163.710938 361.824219 162.40625 L 361.824219 96.027344 C 361.824219 94.597656 361.75 93.171875 361.609375 91.746094 C 361.464844 90.324219 361.253906 88.914062 360.972656 87.511719 C 360.691406 86.109375 360.34375 84.722656 359.925781 83.355469 C 359.511719 81.988281 359.027344 80.644531 358.480469 79.324219 C 357.933594 78.003906 357.320312 76.714844 356.648438 75.453125 C 355.972656 74.191406 355.238281 72.96875 354.445312 71.777344 C 353.648438 70.589844 352.796875 69.441406 351.890625 68.335938 C 350.984375 67.230469 350.027344 66.171875 349.015625 65.160156 C 348.003906 64.152344 346.949219 63.191406 345.84375 62.28125 C 344.738281 61.375 343.59375 60.523438 342.40625 59.726562 C 341.214844 58.933594 339.992188 58.195312 338.734375 57.519531 C 337.472656 56.84375 336.183594 56.234375 334.863281 55.683594 C 333.542969 55.132812 332.199219 54.652344 330.832031 54.234375 C 329.464844 53.816406 328.078125 53.464844 326.679688 53.183594 C 325.277344 52.902344 323.863281 52.6875 322.441406 52.546875 C 321.019531 52.402344 319.59375 52.328125 318.164062 52.324219 Z M 205.746094 230.355469 C 205.746094 231.390625 205.691406 232.421875 205.589844 233.453125 C 205.488281 234.484375 205.335938 235.507812 205.132812 236.519531 C 204.929688 237.535156 204.675781 238.539062 204.375 239.53125 C 204.074219 240.519531 203.726562 241.492188 203.328125 242.449219 C 202.929688 243.40625 202.488281 244.339844 202 245.253906 C 201.511719 246.164062 200.980469 247.050781 200.40625 247.914062 C 199.828125 248.773438 199.214844 249.605469 198.554688 250.402344 C 197.898438 251.203125 197.203125 251.96875 196.472656 252.703125 C 195.742188 253.433594 194.976562 254.128906 194.175781 254.785156 C 193.375 255.441406 192.542969 256.058594 191.683594 256.632812 C 190.824219 257.207031 189.9375 257.742188 189.023438 258.230469 C 188.109375 258.71875 187.175781 259.160156 186.21875 259.558594 C 185.265625 259.953125 184.292969 260.300781 183.300781 260.605469 C 182.308594 260.90625 181.308594 261.15625 180.292969 261.359375 C 179.277344 261.5625 178.253906 261.714844 177.226562 261.820312 C 176.195312 261.921875 175.164062 261.972656 174.125 261.972656 L 133.40625 261.972656 C 132.21875 261.964844 131.132812 262.289062 130.144531 262.941406 L 63.320312 305.273438 L 63.320312 267.855469 C 63.320312 267.457031 63.28125 267.066406 63.203125 266.675781 C 63.128906 266.289062 63.011719 265.910156 62.859375 265.542969 C 62.707031 265.175781 62.523438 264.828125 62.300781 264.5 C 62.082031 264.167969 61.832031 263.863281 61.550781 263.582031 C 61.269531 263.300781 60.964844 263.050781 60.636719 262.832031 C 60.304688 262.609375 59.957031 262.425781 59.589844 262.273438 C 59.222656 262.121094 58.847656 262.007812 58.457031 261.929688 C 58.066406 261.851562 57.675781 261.8125 57.277344 261.8125 C 56.242188 261.8125 55.210938 261.761719 54.179688 261.65625 C 53.148438 261.554688 52.125 261.402344 51.109375 261.199219 C 50.09375 260.996094 49.089844 260.746094 48.101562 260.441406 C 47.109375 260.140625 46.136719 259.792969 45.179688 259.398438 C 44.222656 259 43.285156 258.558594 42.375 258.070312 C 41.460938 257.582031 40.574219 257.050781 39.710938 256.472656 C 38.851562 255.898438 38.019531 255.28125 37.21875 254.625 C 36.417969 253.96875 35.652344 253.273438 34.917969 252.542969 C 34.1875 251.8125 33.492188 251.046875 32.832031 250.246094 C 32.175781 249.445312 31.558594 248.613281 30.980469 247.753906 C 30.40625 246.894531 29.871094 246.007812 29.382812 245.09375 C 28.894531 244.183594 28.449219 243.246094 28.050781 242.292969 C 27.652344 241.335938 27.304688 240.363281 27 239.371094 C 26.699219 238.378906 26.445312 237.378906 26.242188 236.363281 C 26.039062 235.347656 25.882812 234.324219 25.78125 233.292969 C 25.675781 232.261719 25.621094 231.230469 25.621094 230.195312 L 25.621094 163.976562 C 25.621094 162.941406 25.675781 161.90625 25.78125 160.878906 C 25.882812 159.847656 26.039062 158.824219 26.242188 157.808594 C 26.445312 156.792969 26.699219 155.789062 27 154.800781 C 27.304688 153.808594 27.652344 152.835938 28.050781 151.878906 C 28.449219 150.921875 28.894531 149.988281 29.382812 149.078125 C 29.871094 148.164062 30.40625 147.277344 30.980469 146.417969 C 31.558594 145.554688 32.175781 144.726562 32.832031 143.925781 C 33.492188 143.125 34.1875 142.359375 34.917969 141.628906 C 35.652344 140.894531 36.417969 140.203125 37.21875 139.546875 C 38.019531 138.886719 38.851562 138.273438 39.710938 137.699219 C 40.574219 137.121094 41.460938 136.589844 42.375 136.101562 C 43.285156 135.613281 44.222656 135.171875 45.179688 134.773438 C 46.136719 134.378906 47.109375 134.027344 48.101562 133.726562 C 49.089844 133.425781 50.09375 133.175781 51.109375 132.972656 C 52.125 132.769531 53.148438 132.617188 54.179688 132.515625 C 55.210938 132.410156 56.242188 132.359375 57.277344 132.359375 L 174.085938 132.359375 C 175.121094 132.359375 176.15625 132.410156 177.183594 132.515625 C 178.214844 132.617188 179.238281 132.769531 180.253906 132.972656 C 181.265625 133.175781 182.269531 133.425781 183.261719 133.726562 C 184.25 134.03125 185.222656 134.378906 186.179688 134.777344 C 187.136719 135.171875 188.070312 135.613281 188.984375 136.101562 C 189.894531 136.589844 190.78125 137.125 191.644531 137.699219 C 192.503906 138.273438 193.335938 138.890625 194.132812 139.546875 C 194.933594 140.203125 195.699219 140.898438 196.433594 141.628906 C 197.164062 142.363281 197.859375 143.128906 198.515625 143.929688 C 199.171875 144.730469 199.789062 145.558594 200.363281 146.417969 C 200.941406 147.28125 201.472656 148.167969 201.960938 149.078125 C 202.449219 149.992188 202.890625 150.925781 203.289062 151.882812 C 203.683594 152.839844 204.035156 153.8125 204.335938 154.800781 C 204.636719 155.792969 204.886719 156.796875 205.089844 157.8125 C 205.292969 158.824219 205.445312 159.847656 205.550781 160.878906 C 205.652344 161.910156 205.703125 162.941406 205.707031 163.976562 Z M 349.820312 162.40625 C 349.820312 163.441406 349.765625 164.472656 349.664062 165.503906 C 349.558594 166.535156 349.40625 167.558594 349.199219 168.574219 C 348.996094 169.589844 348.742188 170.59375 348.441406 171.582031 C 348.136719 172.574219 347.789062 173.546875 347.390625 174.503906 C 346.992188 175.457031 346.546875 176.394531 346.058594 177.304688 C 345.570312 178.21875 345.035156 179.105469 344.460938 179.964844 C 343.882812 180.824219 343.265625 181.65625 342.609375 182.457031 C 341.953125 183.257812 341.257812 184.023438 340.523438 184.753906 C 339.789062 185.484375 339.023438 186.179688 338.222656 186.835938 C 337.421875 187.492188 336.589844 188.109375 335.730469 188.683594 C 334.867188 189.261719 333.980469 189.792969 333.066406 190.28125 C 332.15625 190.769531 331.21875 191.210938 330.261719 191.609375 C 329.304688 192.003906 328.332031 192.351562 327.339844 192.65625 C 326.351562 192.957031 325.347656 193.207031 324.332031 193.410156 C 323.316406 193.613281 322.292969 193.765625 321.261719 193.867188 C 320.230469 193.972656 319.199219 194.023438 318.164062 194.023438 C 317.765625 194.023438 317.375 194.0625 316.984375 194.140625 C 316.59375 194.21875 316.21875 194.332031 315.851562 194.484375 C 315.484375 194.636719 315.136719 194.824219 314.804688 195.042969 C 314.476562 195.261719 314.171875 195.511719 313.890625 195.792969 C 313.609375 196.074219 313.359375 196.378906 313.140625 196.710938 C 312.917969 197.039062 312.734375 197.386719 312.582031 197.753906 C 312.429688 198.121094 312.316406 198.5 312.238281 198.886719 C 312.160156 199.277344 312.121094 199.667969 312.121094 200.066406 L 312.121094 237.324219 L 245.257812 194.992188 C 244.269531 194.335938 243.183594 194.015625 241.996094 194.023438 L 217.828125 194.023438 L 217.828125 163.976562 C 217.828125 162.546875 217.757812 161.117188 217.613281 159.695312 C 217.472656 158.269531 217.261719 156.855469 216.984375 155.453125 C 216.703125 154.050781 216.355469 152.664062 215.9375 151.296875 C 215.523438 149.925781 215.039062 148.582031 214.492188 147.257812 C 213.945312 145.9375 213.332031 144.644531 212.65625 143.382812 C 211.980469 142.121094 211.246094 140.894531 210.453125 139.707031 C 209.65625 138.515625 208.804688 137.367188 207.898438 136.261719 C 206.988281 135.15625 206.027344 134.097656 205.015625 133.085938 C 204.003906 132.074219 202.945312 131.113281 201.839844 130.207031 C 200.734375 129.296875 199.585938 128.445312 198.398438 127.652344 C 197.207031 126.855469 195.980469 126.121094 194.71875 125.445312 C 193.457031 124.773438 192.167969 124.160156 190.84375 123.613281 C 189.523438 123.0625 188.175781 122.582031 186.808594 122.164062 C 185.441406 121.75 184.054688 121.402344 182.648438 121.121094 C 181.246094 120.839844 179.832031 120.628906 178.410156 120.488281 C 176.984375 120.347656 175.558594 120.277344 174.125 120.273438 L 169.65625 120.273438 L 169.65625 96.105469 C 169.65625 95.070312 169.710938 94.039062 169.8125 93.007812 C 169.914062 91.980469 170.066406 90.957031 170.269531 89.941406 C 170.472656 88.925781 170.726562 87.921875 171.027344 86.933594 C 171.328125 85.941406 171.675781 84.96875 172.074219 84.011719 C 172.46875 83.058594 172.914062 82.121094 173.402344 81.210938 C 173.890625 80.296875 174.421875 79.410156 174.996094 78.550781 C 175.574219 77.691406 176.1875 76.859375 176.84375 76.058594 C 177.503906 75.257812 178.195312 74.492188 178.929688 73.761719 C 179.660156 73.027344 180.425781 72.335938 181.226562 71.679688 C 182.027344 71.019531 182.855469 70.40625 183.71875 69.828125 C 184.578125 69.253906 185.464844 68.722656 186.378906 68.234375 C 187.289062 67.746094 188.226562 67.304688 189.179688 66.90625 C 190.136719 66.507812 191.109375 66.160156 192.101562 65.859375 C 193.089844 65.558594 194.09375 65.304688 195.109375 65.101562 C 196.125 64.898438 197.148438 64.746094 198.175781 64.644531 C 199.207031 64.542969 200.238281 64.488281 201.273438 64.488281 L 318.082031 64.488281 C 319.117188 64.488281 320.152344 64.542969 321.183594 64.644531 C 322.210938 64.746094 323.234375 64.898438 324.25 65.101562 C 325.265625 65.304688 326.269531 65.558594 327.261719 65.859375 C 328.253906 66.160156 329.226562 66.507812 330.183594 66.90625 C 331.140625 67.300781 332.074219 67.746094 332.988281 68.234375 C 333.902344 68.722656 334.789062 69.253906 335.648438 69.828125 C 336.511719 70.402344 337.339844 71.019531 338.140625 71.675781 C 338.945312 72.332031 339.710938 73.027344 340.441406 73.757812 C 341.175781 74.492188 341.871094 75.257812 342.527344 76.054688 C 343.1875 76.855469 343.804688 77.6875 344.378906 78.546875 C 344.957031 79.40625 345.488281 80.292969 345.980469 81.207031 C 346.46875 82.121094 346.910156 83.054688 347.308594 84.011719 C 347.707031 84.964844 348.058594 85.941406 348.359375 86.929688 C 348.664062 87.921875 348.914062 88.925781 349.121094 89.9375 C 349.324219 90.953125 349.476562 91.976562 349.582031 93.007812 C 349.6875 94.039062 349.738281 95.070312 349.742188 96.105469 Z M 349.820312 162.40625 " fill-opacity="1" fill-rule="nonzero"/></g><path fill="#800080" d="M 121.078125 157.046875 C 120.828125 156.546875 120.511719 156.09375 120.136719 155.679688 C 119.757812 155.265625 119.328125 154.914062 118.851562 154.621094 C 118.375 154.328125 117.867188 154.105469 117.332031 153.949219 C 116.792969 153.796875 116.242188 153.722656 115.683594 153.722656 C 115.121094 153.722656 114.574219 153.796875 114.035156 153.949219 C 113.496094 154.105469 112.988281 154.328125 112.511719 154.621094 C 112.035156 154.914062 111.609375 155.265625 111.230469 155.679688 C 110.851562 156.09375 110.535156 156.546875 110.285156 157.046875 L 73.027344 230.4375 C 72.824219 230.792969 72.660156 231.164062 72.53125 231.550781 C 72.402344 231.941406 72.316406 232.339844 72.269531 232.746094 C 72.222656 233.152344 72.214844 233.558594 72.253906 233.964844 C 72.289062 234.375 72.363281 234.773438 72.480469 235.164062 C 72.597656 235.558594 72.753906 235.933594 72.945312 236.292969 C 73.140625 236.65625 73.367188 236.992188 73.628906 237.304688 C 73.890625 237.621094 74.183594 237.90625 74.503906 238.160156 C 74.820312 238.414062 75.164062 238.636719 75.527344 238.820312 C 75.894531 239.007812 76.273438 239.15625 76.667969 239.261719 C 77.0625 239.371094 77.464844 239.441406 77.871094 239.46875 C 78.28125 239.492188 78.6875 239.480469 79.089844 239.425781 C 79.496094 239.367188 79.890625 239.273438 80.277344 239.136719 C 80.664062 239 81.03125 238.828125 81.382812 238.617188 C 81.734375 238.40625 82.058594 238.160156 82.359375 237.886719 C 82.660156 237.609375 82.933594 237.304688 83.171875 236.972656 C 83.410156 236.640625 83.613281 236.289062 83.78125 235.914062 L 96.632812 210.621094 L 134.734375 210.621094 L 147.421875 235.914062 C 147.589844 236.289062 147.792969 236.640625 148.03125 236.972656 C 148.273438 237.304688 148.542969 237.609375 148.84375 237.886719 C 149.144531 238.164062 149.46875 238.40625 149.820312 238.617188 C 150.171875 238.828125 150.539062 239 150.925781 239.136719 C 151.3125 239.273438 151.707031 239.367188 152.113281 239.425781 C 152.519531 239.480469 152.925781 239.492188 153.332031 239.46875 C 153.742188 239.441406 154.144531 239.371094 154.539062 239.261719 C 154.929688 239.15625 155.3125 239.007812 155.675781 238.820312 C 156.039062 238.636719 156.382812 238.414062 156.703125 238.160156 C 157.023438 237.90625 157.3125 237.621094 157.574219 237.304688 C 157.835938 236.992188 158.0625 236.65625 158.257812 236.292969 C 158.453125 235.933594 158.605469 235.558594 158.722656 235.164062 C 158.839844 234.773438 158.917969 234.375 158.953125 233.964844 C 158.988281 233.558594 158.980469 233.152344 158.933594 232.746094 C 158.886719 232.339844 158.800781 231.941406 158.671875 231.550781 C 158.546875 231.164062 158.378906 230.792969 158.175781 230.4375 Z M 102.753906 198.535156 L 115.683594 173.121094 L 128.570312 198.535156 Z M 102.753906 198.535156 " fill-opacity="1" fill-rule="nonzero"/><path fill="#800080" d="M 295.042969 157.613281 L 271.480469 141.742188 C 276.371094 134.007812 280.398438 125.84375 283.5625 117.253906 L 291.621094 117.253906 C 292.015625 117.253906 292.410156 117.214844 292.796875 117.136719 C 293.1875 117.058594 293.566406 116.945312 293.933594 116.792969 C 294.296875 116.640625 294.644531 116.457031 294.976562 116.234375 C 295.304688 116.015625 295.609375 115.765625 295.890625 115.484375 C 296.171875 115.203125 296.421875 114.898438 296.644531 114.566406 C 296.863281 114.238281 297.050781 113.890625 297.203125 113.523438 C 297.351562 113.15625 297.46875 112.78125 297.546875 112.390625 C 297.621094 112 297.660156 111.609375 297.660156 111.210938 C 297.660156 110.816406 297.621094 110.421875 297.546875 110.03125 C 297.46875 109.644531 297.351562 109.265625 297.203125 108.898438 C 297.050781 108.53125 296.863281 108.183594 296.644531 107.855469 C 296.421875 107.523438 296.171875 107.21875 295.890625 106.9375 C 295.609375 106.660156 295.304688 106.410156 294.976562 106.1875 C 294.644531 105.96875 294.296875 105.78125 293.933594 105.628906 C 293.566406 105.476562 293.1875 105.363281 292.796875 105.285156 C 292.410156 105.207031 292.015625 105.167969 291.621094 105.167969 L 267.210938 105.167969 L 267.210938 92.601562 C 267.210938 92.207031 267.171875 91.8125 267.09375 91.425781 C 267.015625 91.035156 266.902344 90.65625 266.75 90.289062 C 266.597656 89.925781 266.414062 89.574219 266.191406 89.246094 C 265.972656 88.917969 265.722656 88.609375 265.441406 88.332031 C 265.160156 88.050781 264.855469 87.800781 264.527344 87.578125 C 264.195312 87.359375 263.847656 87.171875 263.480469 87.019531 C 263.113281 86.871094 262.738281 86.753906 262.347656 86.675781 C 261.957031 86.601562 261.566406 86.5625 261.167969 86.5625 C 260.773438 86.5625 260.378906 86.601562 259.992188 86.675781 C 259.601562 86.753906 259.222656 86.871094 258.855469 87.019531 C 258.492188 87.171875 258.140625 87.359375 257.8125 87.578125 C 257.484375 87.800781 257.175781 88.050781 256.898438 88.332031 C 256.617188 88.609375 256.367188 88.917969 256.144531 89.246094 C 255.925781 89.574219 255.738281 89.925781 255.585938 90.289062 C 255.433594 90.65625 255.320312 91.035156 255.242188 91.425781 C 255.164062 91.8125 255.128906 92.207031 255.128906 92.601562 L 255.128906 105.167969 L 227.980469 105.167969 C 227.582031 105.167969 227.191406 105.207031 226.800781 105.285156 C 226.410156 105.363281 226.035156 105.476562 225.667969 105.628906 C 225.300781 105.78125 224.953125 105.96875 224.621094 106.1875 C 224.292969 106.410156 223.988281 106.660156 223.707031 106.9375 C 223.425781 107.21875 223.175781 107.523438 222.957031 107.855469 C 222.734375 108.183594 222.550781 108.53125 222.398438 108.898438 C 222.246094 109.265625 222.132812 109.644531 222.054688 110.03125 C 221.976562 110.421875 221.9375 110.816406 221.9375 111.210938 C 221.9375 111.609375 221.976562 112 222.054688 112.390625 C 222.132812 112.78125 222.246094 113.15625 222.398438 113.523438 C 222.550781 113.890625 222.734375 114.238281 222.957031 114.566406 C 223.175781 114.898438 223.425781 115.203125 223.707031 115.484375 C 223.988281 115.765625 224.292969 116.015625 224.621094 116.234375 C 224.953125 116.457031 225.300781 116.640625 225.667969 116.792969 C 226.035156 116.945312 226.410156 117.058594 226.800781 117.136719 C 227.191406 117.214844 227.582031 117.253906 227.980469 117.253906 L 270.714844 117.253906 C 268.136719 123.414062 265.046875 129.308594 261.449219 134.9375 L 246.265625 124.703125 C 245.929688 124.480469 245.574219 124.292969 245.203125 124.140625 C 244.828125 123.988281 244.445312 123.875 244.050781 123.796875 C 243.65625 123.71875 243.253906 123.683594 242.851562 123.683594 C 242.449219 123.683594 242.050781 123.726562 241.65625 123.804688 C 241.261719 123.886719 240.878906 124.003906 240.503906 124.160156 C 240.132812 124.316406 239.78125 124.507812 239.445312 124.730469 C 239.113281 124.957031 238.804688 125.214844 238.519531 125.5 C 238.238281 125.785156 237.984375 126.097656 237.761719 126.433594 C 237.539062 126.769531 237.351562 127.125 237.199219 127.496094 C 237.046875 127.871094 236.933594 128.253906 236.855469 128.648438 C 236.777344 129.046875 236.742188 129.445312 236.742188 129.847656 C 236.746094 130.25 236.785156 130.648438 236.867188 131.042969 C 236.949219 131.4375 237.066406 131.824219 237.222656 132.195312 C 237.378906 132.566406 237.570312 132.917969 237.796875 133.253906 C 238.023438 133.585938 238.277344 133.894531 238.566406 134.179688 C 238.851562 134.460938 239.164062 134.714844 239.5 134.9375 L 254.484375 145.003906 C 249.785156 150.945312 244.589844 156.410156 238.894531 161.398438 C 238.597656 161.664062 238.328125 161.953125 238.089844 162.273438 C 237.851562 162.589844 237.644531 162.925781 237.472656 163.285156 C 237.296875 163.644531 237.160156 164.015625 237.0625 164.398438 C 236.960938 164.785156 236.898438 165.175781 236.875 165.574219 C 236.855469 165.96875 236.871094 166.363281 236.925781 166.757812 C 236.980469 167.152344 237.070312 167.539062 237.203125 167.914062 C 237.332031 168.289062 237.5 168.648438 237.699219 168.992188 C 237.902344 169.335938 238.132812 169.65625 238.398438 169.953125 C 238.664062 170.25 238.953125 170.519531 239.269531 170.757812 C 239.585938 171 239.925781 171.207031 240.28125 171.378906 C 240.640625 171.550781 241.011719 171.691406 241.394531 171.789062 C 241.78125 171.890625 242.171875 171.953125 242.570312 171.976562 C 242.964844 172 243.363281 171.984375 243.753906 171.929688 C 244.148438 171.875 244.535156 171.785156 244.910156 171.65625 C 245.285156 171.523438 245.644531 171.359375 245.988281 171.160156 C 246.332031 170.957031 246.652344 170.726562 246.949219 170.460938 C 253.429688 164.785156 259.320312 158.554688 264.632812 151.773438 L 288.398438 167.882812 C 289.40625 168.5625 290.523438 168.898438 291.742188 168.890625 C 292.386719 168.890625 293.015625 168.785156 293.625 168.582031 C 294.238281 168.378906 294.804688 168.085938 295.324219 167.703125 C 295.839844 167.316406 296.285156 166.863281 296.660156 166.335938 C 297.03125 165.808594 297.3125 165.238281 297.5 164.621094 C 297.691406 164.003906 297.777344 163.371094 297.765625 162.726562 C 297.75 162.082031 297.636719 161.453125 297.425781 160.847656 C 297.210938 160.238281 296.90625 159.675781 296.515625 159.164062 C 296.121094 158.65625 295.65625 158.21875 295.125 157.855469 Z M 295.042969 157.613281 " fill-opacity="1" fill-rule="nonzero"/><g clip-path="url(#13e2c22ee4)"><g clip-path="url(#8fa2435ac1)"><path fill="#800080" d="M 127.730469 267.085938 L 134.28125 267.085938 L 134.28125 273.636719 L 127.730469 273.636719 Z M 127.730469 267.085938 " fill-opacity="1" fill-rule="nonzero"/></g></g></svg>